<svg width="49" height="39" viewBox="0 0 49 39" fill="none" xmlns="http://www.w3.org/2000/svg">
<path d="M12.8987 14.5937L27.1201 19.0025C28.5581 19.4843 29.8058 21.0478 28.6533 22.7477C27.892 24.0294 22.214 29.3472 22.214 29.3472C22.1822 29.4472 3.86888 23.6022 3.86888 23.6022C2.37801 23.1113 1.51098 21.775 1.99736 20.2206C2.48375 18.6661 11.1752 14.0028 12.8987 14.5846V14.5937Z" fill="#B72927"/>
<path d="M12.9102 14.5854L27.1316 18.9942C28.5696 19.476 29.8173 21.0395 28.6648 22.7394C27.9035 24.0211 22.2255 29.3389 22.2255 29.3389C22.1938 29.4389 3.88042 23.5939 3.88042 23.5939C2.38955 23.103 1.52252 21.7667 2.0089 20.2123C2.49528 18.6578 11.1867 13.9945 12.9102 14.5763V14.5854Z" fill="url(#paint0_linear_6885_9071)" style="mix-blend-mode:multiply"/>
<path d="M12.8987 14.5854L27.1201 18.9942C28.5581 19.476 29.8058 21.0395 28.6533 22.7394C27.892 24.0211 22.214 29.3389 22.214 29.3389C22.1822 29.4389 3.86888 23.5939 3.86888 23.5939C2.37801 23.103 1.51098 21.7667 1.99736 20.2123C2.48375 18.6578 11.1752 13.9945 12.8987 14.5763V14.5854Z" fill="url(#paint1_linear_6885_9071)" style="mix-blend-mode:multiply"/>
<path d="M31.1001 13.9128C31.6182 13.5037 39.1994 7.47686 48.9482 0.222801C49.0751 0.122808 48.9482 -0.0499076 48.7896 0.0137245C44.2959 1.98632 35.2661 3.80438 35.2661 3.80438L16.7412 6.76782C10.4288 7.87683 9.84728 8.78586 7.29905 12.3129L6.62235 13.231C6.59063 13.2765 5.51213 14.9491 2.04401 20.1215C3.10136 18.5488 4.29617 18.4216 11.4016 17.2762C12.755 17.0308 15.9799 16.3944 17.9995 16.0399C20.8015 15.549 30.3494 14.0401 31.0261 13.931C31.0578 13.931 31.0684 13.9219 31.0895 13.9037L31.1001 13.9128Z" fill="#E73928"/>
<path d="M7.25345 27.2848L0 38.4931L14.2426 35.6024C20.5444 34.4661 21.1259 33.5571 23.6636 30.021L24.3403 29.0937C24.3403 29.0937 25.1544 28.0211 28.6543 22.7578C27.6604 24.3213 23.7587 24.2941 19.5505 25.0758C18.1971 25.3304 7.26402 27.2848 7.26402 27.2848H7.25345Z" fill="#E73928"/>
<defs>
<linearGradient id="paint0_linear_6885_9071" x1="19.8782" y1="30.3843" x2="14.71" y2="15.885" gradientUnits="userSpaceOnUse">
<stop stop-color="white"/>
<stop offset="0.32" stop-color="#FDFCFD"/>
<stop offset="0.47" stop-color="#F9F5F6"/>
<stop offset="0.57" stop-color="#F2E9EA"/>
<stop offset="0.66" stop-color="#E8D7DA"/>
<stop offset="0.74" stop-color="#DABFC4"/>
<stop offset="0.81" stop-color="#CAA3AA"/>
<stop offset="0.87" stop-color="#B6818B"/>
<stop offset="0.93" stop-color="#A05966"/>
<stop offset="0.98" stop-color="#872D3E"/>
<stop offset="1" stop-color="#7E1E30"/>
</linearGradient>
<linearGradient id="paint1_linear_6885_9071" x1="16.5043" y1="22.9121" x2="20.5207" y2="31.4432" gradientUnits="userSpaceOnUse">
<stop stop-color="white"/>
<stop offset="0.22" stop-color="#FCFCFC"/>
<stop offset="0.35" stop-color="#F3F3F3"/>
<stop offset="0.47" stop-color="#E5E5E5"/>
<stop offset="0.57" stop-color="#D0D0D0"/>
<stop offset="0.66" stop-color="#B5B5B5"/>
<stop offset="0.75" stop-color="#959595"/>
<stop offset="0.83" stop-color="#6D6D6D"/>
<stop offset="0.91" stop-color="#404040"/>
<stop offset="0.98" stop-color="#0E0E0E"/>
<stop offset="1"/>
</linearGradient>
</defs>
</svg>
