<svg width="24" height="22" viewBox="0 0 24 22" fill="none" xmlns="http://www.w3.org/2000/svg">
<path d="M6.13716 7.14167L12.9032 9.29915C13.5873 9.53491 14.1809 10.3 13.6326 11.1319C13.2704 11.7591 10.569 14.3614 10.569 14.3614C10.5539 14.4104 1.84111 11.55 1.84111 11.55C1.13181 11.3098 0.719313 10.6559 0.950716 9.89523C1.18212 9.13456 5.31719 6.85253 6.13716 7.13722V7.14167Z" fill="#B72927"/>
<path d="M14.794 6.80832C15.0405 6.60814 18.6473 3.65885 23.2855 0.109029C23.3458 0.060097 23.2855 -0.0244226 23.21 0.00671617C21.072 0.972019 16.776 1.8617 16.776 1.8617L7.96255 3.31188C4.95934 3.85458 4.68266 4.29942 3.47031 6.0254L3.14836 6.47469C3.13327 6.49693 2.62016 7.31544 0.970154 9.84658C1.4732 9.077 2.04165 9.01473 5.42215 8.45423C6.06605 8.33412 7.60035 8.02273 8.56118 7.84925C9.89426 7.60903 14.4368 6.8706 14.7588 6.81722C14.7738 6.81722 14.7789 6.81277 14.7889 6.80387L14.794 6.80832Z" fill="#E73928"/>
<path d="M3.45092 13.352L0 18.8369L6.77608 17.4223C9.77426 16.8663 10.0509 16.4214 11.2583 14.691L11.5802 14.2373C11.5802 14.2373 11.9676 13.7123 13.6327 11.1367C13.1598 11.9018 11.3035 11.8885 9.30139 12.2711C8.65749 12.3956 3.45595 13.352 3.45595 13.352H3.45092Z" fill="#E73928"/>
</svg>
